{
    "asset" : {
        "generator" : "Khronos glTF Blender I/O v1.8.19",
        "version" : "2.0"
    },
    "scene" : 0,
    "scenes" : [
        {
            "name" : "Scene",
            "nodes" : [
                0
            ]
        }
    ],
    "nodes" : [
        {
            "mesh" : 0,
            "name" : "WheelTireFR",
            "rotation" : [
                0,
                -1,
                0,
                7.549790126404332e-08
            ],
            "translation" : [
                1.5587553977966309,
                -0.8011549711227417,
                -3.111738443374634
            ]
        }
    ],
    "materials" : [
        {
            "doubleSided" : true,
            "name" : "Material.003",
            "pbrMetallicRoughness" : {
                "baseColorFactor" : [
                    0.015994884073734283,
                    0.015994884073734283,
                    0.015994884073734283,
                    1
                ],
                "metallicFactor" : 0,
                "roughnessFactor" : 0.7777777910232544
            }
        },
        {
            "doubleSided" : true,
            "name" : "Material.018",
            "pbrMetallicRoughness" : {
                "metallicFactor" : 0.4678899049758911,
                "roughnessFactor" : 0
            }
        }
    ],
    "meshes" : [
        {
            "name" : "Cube.023",
            "primitives" : [
                {
                    "attributes" : {
                        "POSITION" : 0,
                        "NORMAL" : 1,
                        "TEXCOORD_0" : 2
                    },
                    "indices" : 3,
                    "material" : 0
                },
                {
                    "attributes" : {
                        "POSITION" : 4,
                        "NORMAL" : 5,
                        "TEXCOORD_0" : 6
                    },
                    "indices" : 7,
                    "material" : 1
                }
            ]
        }
    ],
    "accessors" : [
        {
            "bufferView" : 0,
            "componentType" : 5126,
            "count" : 428,
            "max" : [
                0.40550753474235535,
                0.7728420495986938,
                0.7728416919708252
            ],
            "min" : [
                -0.405507355928421,
                -0.772842288017273,
                -0.7728421688079834
            ],
            "type" : "VEC3"
        },
        {
            "bufferView" : 1,
            "componentType" : 5126,
            "count" : 428,
            "type" : "VEC3"
        },
        {
            "bufferView" : 2,
            "componentType" : 5126,
            "count" : 428,
            "type" : "VEC2"
        },
        {
            "bufferView" : 3,
            "componentType" : 5123,
            "count" : 648,
            "type" : "SCALAR"
        },
        {
            "bufferView" : 4,
            "componentType" : 5126,
            "count" : 540,
            "max" : [
                0.3505690395832062,
                0.7728420495986938,
                0.7728415727615356
            ],
            "min" : [
                -0.3587978780269623,
                -0.772842288017273,
                -0.772842288017273
            ],
            "type" : "VEC3"
        },
        {
            "bufferView" : 5,
            "componentType" : 5126,
            "count" : 540,
            "type" : "VEC3"
        },
        {
            "bufferView" : 6,
            "componentType" : 5126,
            "count" : 540,
            "type" : "VEC2"
        },
        {
            "bufferView" : 7,
            "componentType" : 5123,
            "count" : 924,
            "type" : "SCALAR"
        }
    ],
    "bufferViews" : [
        {
            "buffer" : 0,
            "byteLength" : 5136,
            "byteOffset" : 0
        },
        {
            "buffer" : 0,
            "byteLength" : 5136,
            "byteOffset" : 5136
        },
        {
            "buffer" : 0,
            "byteLength" : 3424,
            "byteOffset" : 10272
        },
        {
            "buffer" : 0,
            "byteLength" : 1296,
            "byteOffset" : 13696
        },
        {
            "buffer" : 0,
            "byteLength" : 6480,
            "byteOffset" : 14992
        },
        {
            "buffer" : 0,
            "byteLength" : 6480,
            "byteOffset" : 21472
        },
        {
            "buffer" : 0,
            "byteLength" : 4320,
            "byteOffset" : 27952
        },
        {
            "buffer" : 0,
            "byteLength" : 1848,
            "byteOffset" : 32272
        }
    ],
    "buffers" : [
        {
            "byteLength" : 34120,
            "uri" : "data:application/octet-stream;base64,"
        }
    ]
}
