{
    "asset" : {
        "generator" : "Khronos glTF Blender I/O v1.8.19",
        "version" : "2.0"
    },
    "scene" : 0,
    "scenes" : [
        {
            "name" : "Scene",
            "nodes" : [
                0
            ]
        }
    ],
    "nodes" : [
        {
            "mesh" : 0,
            "name" : "Cube",
            "translation" : [
                1.0212020874023438,
                -0.6357066035270691,
                -3.116548538208008
            ]
        }
    ],
    "materials" : [
        {
            "doubleSided" : true,
            "name" : "Material.003",
            "pbrMetallicRoughness" : {
                "baseColorFactor" : [
                    0.015994884073734283,
                    0.015994884073734283,
                    0.015994884073734283,
                    1
                ],
                "metallicFactor" : 0,
                "roughnessFactor" : 0.7777777910232544
            }
        },
        {
            "doubleSided" : true,
            "name" : "Material.018",
            "pbrMetallicRoughness" : {
                "metallicFactor" : 0.4678899049758911,
                "roughnessFactor" : 0
            }
        }
    ],
    "meshes" : [
        {
            "name" : "Cube.001",
            "primitives" : [
                {
                    "attributes" : {
                        "POSITION" : 0,
                        "NORMAL" : 1,
                        "TEXCOORD_0" : 2
                    },
                    "indices" : 3,
                    "material" : 0
                },
                {
                    "attributes" : {
                        "POSITION" : 4,
                        "NORMAL" : 5,
                        "TEXCOORD_0" : 6
                    },
                    "indices" : 7,
                    "material" : 1
                }
            ]
        }
    ],
    "accessors" : [
        {
            "bufferView" : 0,
            "componentType" : 5126,
            "count" : 452,
            "max" : [
                0.9448301792144775,
                0.6125650405883789,
                0.7780673503875732
            ],
            "min" : [
                0.13123981654644012,
                -0.9385504722595215,
                -0.768089771270752
            ],
            "type" : "VEC3"
        },
        {
            "bufferView" : 1,
            "componentType" : 5126,
            "count" : 452,
            "type" : "VEC3"
        },
        {
            "bufferView" : 2,
            "componentType" : 5126,
            "count" : 452,
            "type" : "VEC2"
        },
        {
            "bufferView" : 3,
            "componentType" : 5123,
            "count" : 684,
            "type" : "SCALAR"
        },
        {
            "bufferView" : 4,
            "componentType" : 5126,
            "count" : 540,
            "max" : [
                0.8963512778282166,
                0.6073936820030212,
                0.7776524424552917
            ],
            "min" : [
                0.18698415160179138,
                -0.9382906556129456,
                -0.7680315375328064
            ],
            "type" : "VEC3"
        },
        {
            "bufferView" : 5,
            "componentType" : 5126,
            "count" : 540,
            "type" : "VEC3"
        },
        {
            "bufferView" : 6,
            "componentType" : 5126,
            "count" : 540,
            "type" : "VEC2"
        },
        {
            "bufferView" : 7,
            "componentType" : 5123,
            "count" : 924,
            "type" : "SCALAR"
        }
    ],
    "bufferViews" : [
        {
            "buffer" : 0,
            "byteLength" : 5424,
            "byteOffset" : 0
        },
        {
            "buffer" : 0,
            "byteLength" : 5424,
            "byteOffset" : 5424
        },
        {
            "buffer" : 0,
            "byteLength" : 3616,
            "byteOffset" : 10848
        },
        {
            "buffer" : 0,
            "byteLength" : 1368,
            "byteOffset" : 14464
        },
        {
            "buffer" : 0,
            "byteLength" : 6480,
            "byteOffset" : 15832
        },
        {
            "buffer" : 0,
            "byteLength" : 6480,
            "byteOffset" : 22312
        },
        {
            "buffer" : 0,
            "byteLength" : 4320,
            "byteOffset" : 28792
        },
        {
            "buffer" : 0,
            "byteLength" : 1848,
            "byteOffset" : 33112
        }
    ],
    "buffers" : [
        {
            "byteLength" : 34960,
            "uri" : "data:application/octet-stream;base64,"
        }
    ]
}
