{
    "asset" : {
        "generator" : "Khronos glTF Blender I/O v1.8.19",
        "version" : "2.0"
    },
    "scene" : 0,
    "scenes" : [
        {
            "name" : "Scene",
            "nodes" : [
                0
            ]
        }
    ],
    "nodes" : [
        {
            "mesh" : 0,
            "name" : "WheelRimFL",
            "translation" : [
                -1.6123369932174683,
                -0.8011549711227417,
                -3.1117401123046875
            ]
        }
    ],
    "materials" : [
        {
            "doubleSided" : true,
            "name" : "Material.019",
            "pbrMetallicRoughness" : {
                "baseColorFactor" : [
                    0.800000011920929,
                    0.800000011920929,
                    0.800000011920929,
                    1
                ],
                "metallicFactor" : 0.2110091894865036,
                "roughnessFactor" : 0
            }
        },
        {
            "doubleSided" : true,
            "name" : "Material.004",
            "pbrMetallicRoughness" : {
                "baseColorFactor" : [
                    0.017387619242072105,
                    0.017387619242072105,
                    0.017387619242072105,
                    1
                ],
                "metallicFactor" : 0,
                "roughnessFactor" : 0.8055555820465088
            }
        }
    ],
    "meshes" : [
        {
            "name" : "Cube.006",
            "primitives" : [
                {
                    "attributes" : {
                        "POSITION" : 0,
                        "NORMAL" : 1,
                        "TEXCOORD_0" : 2
                    },
                    "indices" : 3,
                    "material" : 0
                },
                {
                    "attributes" : {
                        "POSITION" : 4,
                        "NORMAL" : 5,
                        "TEXCOORD_0" : 6
                    },
                    "indices" : 7,
                    "material" : 1
                }
            ]
        }
    ],
    "accessors" : [
        {
            "bufferView" : 0,
            "componentType" : 5126,
            "count" : 540,
            "max" : [
                0.669854462146759,
                0.7728420495986938,
                0.7728418707847595
            ],
            "min" : [
                -0.3525208830833435,
                -0.772842288017273,
                -0.7728419899940491
            ],
            "type" : "VEC3"
        },
        {
            "bufferView" : 1,
            "componentType" : 5126,
            "count" : 540,
            "type" : "VEC3"
        },
        {
            "bufferView" : 2,
            "componentType" : 5126,
            "count" : 540,
            "type" : "VEC2"
        },
        {
            "bufferView" : 3,
            "componentType" : 5123,
            "count" : 924,
            "type" : "SCALAR"
        },
        {
            "bufferView" : 4,
            "componentType" : 5126,
            "count" : 428,
            "max" : [
                0.4117845296859741,
                0.7728420495986938,
                0.77284175157547
            ],
            "min" : [
                -0.39923036098480225,
                -0.772842288017273,
                -0.7728421092033386
            ],
            "type" : "VEC3"
        },
        {
            "bufferView" : 5,
            "componentType" : 5126,
            "count" : 428,
            "type" : "VEC3"
        },
        {
            "bufferView" : 6,
            "componentType" : 5126,
            "count" : 428,
            "type" : "VEC2"
        },
        {
            "bufferView" : 7,
            "componentType" : 5123,
            "count" : 648,
            "type" : "SCALAR"
        }
    ],
    "bufferViews" : [
        {
            "buffer" : 0,
            "byteLength" : 6480,
            "byteOffset" : 0
        },
        {
            "buffer" : 0,
            "byteLength" : 6480,
            "byteOffset" : 6480
        },
        {
            "buffer" : 0,
            "byteLength" : 4320,
            "byteOffset" : 12960
        },
        {
            "buffer" : 0,
            "byteLength" : 1848,
            "byteOffset" : 17280
        },
        {
            "buffer" : 0,
            "byteLength" : 5136,
            "byteOffset" : 19128
        },
        {
            "buffer" : 0,
            "byteLength" : 5136,
            "byteOffset" : 24264
        },
        {
            "buffer" : 0,
            "byteLength" : 3424,
            "byteOffset" : 29400
        },
        {
            "buffer" : 0,
            "byteLength" : 1296,
            "byteOffset" : 32824
        }
    ],
    "buffers" : [
        {
            "byteLength" : 34120,
            "uri" : "data:application/octet-stream;base64,"
        }
    ]
}
