<?xml version="1.0" encoding="UTF-8"?>
<svg xmlns="http://www.w3.org/2000/svg" xmlns:xlink="http://www.w3.org/1999/xlink" width="32px" height="32px" viewBox="0 0 32 32" version="1.1">
<g id="surface1">
<path style=" stroke:none;fill-rule:nonzero;fill:rgb(100%,100%,100%);fill-opacity:1;" d="M 16.03125 0 C 7.183594 0 0.0664062 7.332031 0.0664062 16.398438 C 0.0664062 23.667969 4.636719 29.800781 10.972656 31.964844 C 11.753906 32.132812 12.050781 31.601562 12.050781 31.167969 C 12.050781 30.800781 12.015625 29.464844 12.015625 28.132812 C 7.574219 29.101562 6.660156 26.167969 6.660156 26.167969 C 5.941406 24.265625 4.898438 23.765625 4.898438 23.765625 C 3.460938 22.765625 4.996094 22.765625 4.996094 22.765625 C 6.597656 22.867188 7.445312 24.464844 7.445312 24.464844 C 8.882812 26.964844 11.167969 26.265625 12.082031 25.832031 C 12.210938 24.765625 12.636719 24.035156 13.09375 23.632812 C 9.566406 23.265625 5.84375 21.832031 5.84375 15.535156 C 5.84375 13.734375 6.464844 12.265625 7.476562 11.132812 C 7.3125 10.734375 6.757812 9.035156 7.640625 6.800781 C 7.640625 6.800781 8.980469 6.367188 12.015625 8.5 C 13.289062 8.132812 14.660156 7.964844 16 7.964844 C 17.339844 7.964844 18.710938 8.167969 19.984375 8.5 C 23.019531 6.367188 24.359375 6.800781 24.359375 6.800781 C 25.242188 9.066406 24.6875 10.734375 24.523438 11.132812 C 25.566406 12.265625 26.15625 13.734375 26.15625 15.535156 C 26.15625 21.832031 22.433594 23.234375 18.875 23.632812 C 19.460938 24.132812 19.949219 25.132812 19.949219 26.667969 C 19.949219 28.867188 19.917969 30.632812 19.917969 31.167969 C 19.917969 31.601562 20.210938 32.132812 20.996094 31.964844 C 27.363281 29.800781 31.933594 23.667969 31.933594 16.398438 C 31.96875 7.332031 24.816406 0 16.03125 0 Z M 16.03125 0 "/>
</g>
</svg>
